<?xml version="1.0" encoding="UTF-8" standalone="no"?>
<!DOCTYPE svg PUBLIC "-//W3C//DTD SVG 1.1//EN"
 "http://www.w3.org/Graphics/SVG/1.1/DTD/svg11.dtd">
<!-- Generated by graphviz version 2.38.0 (20140413.2041)
 -->
<!-- Title: snakemake_dag Pages: 1 -->
<svg width="389pt" height="116pt"
 viewBox="0.00 0.00 389.00 116.00" xmlns="http://www.w3.org/2000/svg" xmlns:xlink="http://www.w3.org/1999/xlink">
<g id="graph0" class="graph" transform="scale(1 1) rotate(0) translate(4 112)">
<title>snakemake_dag</title>
<polygon fill="white" stroke="none" points="-4,4 -4,-112 385,-112 385,4 -4,4"/>
<!-- 0 -->
<g id="node1" class="node"><title>0</title>
<path fill="none" stroke="#59d856" stroke-width="2" d="M205.5,-36C205.5,-36 175.5,-36 175.5,-36 169.5,-36 163.5,-30 163.5,-24 163.5,-24 163.5,-12 163.5,-12 163.5,-6 169.5,-0 175.5,-0 175.5,-0 205.5,-0 205.5,-0 211.5,-0 217.5,-6 217.5,-12 217.5,-12 217.5,-24 217.5,-24 217.5,-30 211.5,-36 205.5,-36"/>
<text text-anchor="middle" x="190.5" y="-15.5" font-family="sans" font-size="10.00">all</text>
</g>
<!-- 1 -->
<g id="node2" class="node"><title>1</title>
<path fill="none" stroke="#d85656" stroke-width="2" d="M103,-108C103,-108 12,-108 12,-108 6,-108 7.10543e-15,-102 7.10543e-15,-96 7.10543e-15,-96 7.10543e-15,-84 7.10543e-15,-84 7.10543e-15,-78 6,-72 12,-72 12,-72 103,-72 103,-72 109,-72 115,-78 115,-84 115,-84 115,-96 115,-96 115,-102 109,-108 103,-108"/>
<text text-anchor="middle" x="57.5" y="-93" font-family="sans" font-size="10.00">var_annotation</text>
<text text-anchor="middle" x="57.5" y="-82" font-family="sans" font-size="10.00">vcf_name: 20.vcf.gz</text>
</g>
<!-- 1&#45;&gt;0 -->
<g id="edge1" class="edge"><title>1&#45;&gt;0</title>
<path fill="none" stroke="grey" stroke-width="2" d="M90.0355,-71.8761C109.509,-61.6269 134.294,-48.5822 154.373,-38.0141"/>
<polygon fill="grey" stroke="grey" stroke-width="2" points="156.013,-41.1064 163.232,-33.3517 152.753,-34.912 156.013,-41.1064"/>
</g>
<!-- 2 -->
<g id="node3" class="node"><title>2</title>
<path fill="none" stroke="#d85656" stroke-width="2" d="M236,-108C236,-108 145,-108 145,-108 139,-108 133,-102 133,-96 133,-96 133,-84 133,-84 133,-78 139,-72 145,-72 145,-72 236,-72 236,-72 242,-72 248,-78 248,-84 248,-84 248,-96 248,-96 248,-102 242,-108 236,-108"/>
<text text-anchor="middle" x="190.5" y="-93" font-family="sans" font-size="10.00">var_annotation</text>
<text text-anchor="middle" x="190.5" y="-82" font-family="sans" font-size="10.00">vcf_name: 21.vcf.gz</text>
</g>
<!-- 2&#45;&gt;0 -->
<g id="edge2" class="edge"><title>2&#45;&gt;0</title>
<path fill="none" stroke="grey" stroke-width="2" d="M190.5,-71.6966C190.5,-63.9827 190.5,-54.7125 190.5,-46.1124"/>
<polygon fill="grey" stroke="grey" stroke-width="2" points="194,-46.1043 190.5,-36.1043 187,-46.1044 194,-46.1043"/>
</g>
<!-- 3 -->
<g id="node4" class="node"><title>3</title>
<path fill="none" stroke="#d85656" stroke-width="2" d="M369,-108C369,-108 278,-108 278,-108 272,-108 266,-102 266,-96 266,-96 266,-84 266,-84 266,-78 272,-72 278,-72 278,-72 369,-72 369,-72 375,-72 381,-78 381,-84 381,-84 381,-96 381,-96 381,-102 375,-108 369,-108"/>
<text text-anchor="middle" x="323.5" y="-93" font-family="sans" font-size="10.00">var_annotation</text>
<text text-anchor="middle" x="323.5" y="-82" font-family="sans" font-size="10.00">vcf_name: 22.vcf.gz</text>
</g>
<!-- 3&#45;&gt;0 -->
<g id="edge3" class="edge"><title>3&#45;&gt;0</title>
<path fill="none" stroke="grey" stroke-width="2" d="M290.965,-71.8761C271.491,-61.6269 246.706,-48.5822 226.627,-38.0141"/>
<polygon fill="grey" stroke="grey" stroke-width="2" points="228.247,-34.912 217.768,-33.3517 224.987,-41.1064 228.247,-34.912"/>
</g>
</g>
</svg>
