<?xml version="1.0" encoding="UTF-8" standalone="no"?>
<!DOCTYPE svg PUBLIC "-//W3C//DTD SVG 1.1//EN"
 "http://www.w3.org/Graphics/SVG/1.1/DTD/svg11.dtd">
<!-- Generated by graphviz version 2.42.3 (20191010.1750)
 -->
<!-- Title: snakemake_dag Pages: 1 -->
<svg width="1974pt" height="476pt"
 viewBox="0.00 0.00 1974.00 476.00" xmlns="http://www.w3.org/2000/svg" xmlns:xlink="http://www.w3.org/1999/xlink">
<g id="graph0" class="graph" transform="scale(1 1) rotate(0) translate(4 472)">
<title>snakemake_dag</title>
<polygon fill="white" stroke="transparent" points="-4,4 -4,-472 1970,-472 1970,4 -4,4"/>
<!-- 0 -->
<g id="node1" class="node">
<title>0</title>
<path fill="none" stroke="#56d8a9" stroke-width="2" d="M1067.5,-36C1067.5,-36 1037.5,-36 1037.5,-36 1031.5,-36 1025.5,-30 1025.5,-24 1025.5,-24 1025.5,-12 1025.5,-12 1025.5,-6 1031.5,0 1037.5,0 1037.5,0 1067.5,0 1067.5,0 1073.5,0 1079.5,-6 1079.5,-12 1079.5,-12 1079.5,-24 1079.5,-24 1079.5,-30 1073.5,-36 1067.5,-36"/>
<text text-anchor="middle" x="1052.5" y="-15.5" font-family="sans" font-size="10.00">all</text>
</g>
<!-- 1 -->
<g id="node2" class="node">
<title>1</title>
<path fill="none" stroke="#d8cb56" stroke-width="2" d="M353,-108C353,-108 12,-108 12,-108 6,-108 0,-102 0,-96 0,-96 0,-84 0,-84 0,-78 6,-72 12,-72 12,-72 353,-72 353,-72 359,-72 365,-78 365,-84 365,-84 365,-96 365,-96 365,-102 359,-108 353,-108"/>
<text text-anchor="middle" x="182.5" y="-93" font-family="sans" font-size="10.00">gatk_hap_caller</text>
<text text-anchor="middle" x="182.5" y="-82" font-family="sans" font-size="10.00">interval_name: wgs_calling_regions_chrX_PAR.GRCh38.p13.interval_list</text>
</g>
<!-- 1&#45;&gt;0 -->
<g id="edge1" class="edge">
<title>1&#45;&gt;0</title>
<path fill="none" stroke="grey" stroke-width="2" d="M365.23,-72.69C368,-72.46 370.76,-72.23 373.5,-72 618.18,-51.56 912.66,-29.41 1015.17,-21.77"/>
<polygon fill="grey" stroke="grey" stroke-width="2" points="1015.61,-25.25 1025.32,-21.01 1015.09,-18.27 1015.61,-25.25"/>
</g>
<!-- 2 -->
<g id="node3" class="node">
<title>2</title>
<path fill="none" stroke="#5692d8" stroke-width="2" d="M726.5,-180C726.5,-180 680.5,-180 680.5,-180 674.5,-180 668.5,-174 668.5,-168 668.5,-168 668.5,-156 668.5,-156 668.5,-150 674.5,-144 680.5,-144 680.5,-144 726.5,-144 726.5,-144 732.5,-144 738.5,-150 738.5,-156 738.5,-156 738.5,-168 738.5,-168 738.5,-174 732.5,-180 726.5,-180"/>
<text text-anchor="middle" x="703.5" y="-159.5" font-family="sans" font-size="10.00">apply_bqsr</text>
</g>
<!-- 2&#45;&gt;1 -->
<g id="edge9" class="edge">
<title>2&#45;&gt;1</title>
<path fill="none" stroke="grey" stroke-width="2" d="M668.1,-156.24C597.66,-146.78 436.64,-125.15 319.27,-109.38"/>
<polygon fill="grey" stroke="grey" stroke-width="2" points="319.5,-105.88 309.13,-108.01 318.57,-112.81 319.5,-105.88"/>
</g>
<!-- 7 -->
<g id="node8" class="node">
<title>7</title>
<path fill="none" stroke="#d8cb56" stroke-width="2" d="M758.5,-108C758.5,-108 394.5,-108 394.5,-108 388.5,-108 382.5,-102 382.5,-96 382.5,-96 382.5,-84 382.5,-84 382.5,-78 388.5,-72 394.5,-72 394.5,-72 758.5,-72 758.5,-72 764.5,-72 770.5,-78 770.5,-84 770.5,-84 770.5,-96 770.5,-96 770.5,-102 764.5,-108 758.5,-108"/>
<text text-anchor="middle" x="576.5" y="-93" font-family="sans" font-size="10.00">gatk_hap_caller</text>
<text text-anchor="middle" x="576.5" y="-82" font-family="sans" font-size="10.00">interval_name: wgs_calling_regions_chrX_NONPAR.GRCh38.p13.interval_list</text>
</g>
<!-- 2&#45;&gt;7 -->
<g id="edge15" class="edge">
<title>2&#45;&gt;7</title>
<path fill="none" stroke="grey" stroke-width="2" d="M672.43,-143.88C655.67,-134.64 634.79,-123.13 616.8,-113.21"/>
<polygon fill="grey" stroke="grey" stroke-width="2" points="618.13,-109.95 607.69,-108.19 614.76,-116.08 618.13,-109.95"/>
</g>
<!-- 15 -->
<g id="node16" class="node">
<title>15</title>
<path fill="none" stroke="#56c9d8" stroke-width="2" d="M859,-108C859,-108 800,-108 800,-108 794,-108 788,-102 788,-96 788,-96 788,-84 788,-84 788,-78 794,-72 800,-72 800,-72 859,-72 859,-72 865,-72 871,-78 871,-84 871,-84 871,-96 871,-96 871,-102 865,-108 859,-108"/>
<text text-anchor="middle" x="829.5" y="-87.5" font-family="sans" font-size="10.00">sam_validate</text>
</g>
<!-- 2&#45;&gt;15 -->
<g id="edge23" class="edge">
<title>2&#45;&gt;15</title>
<path fill="none" stroke="grey" stroke-width="2" d="M734.32,-143.88C750.95,-134.64 771.66,-123.13 789.52,-113.21"/>
<polygon fill="grey" stroke="grey" stroke-width="2" points="791.52,-116.11 798.56,-108.19 788.12,-109.99 791.52,-116.11"/>
</g>
<!-- 17 -->
<g id="node18" class="node">
<title>17</title>
<path fill="none" stroke="#d88d56" stroke-width="2" d="M962,-108C962,-108 901,-108 901,-108 895,-108 889,-102 889,-96 889,-96 889,-84 889,-84 889,-78 895,-72 901,-72 901,-72 962,-72 962,-72 968,-72 974,-78 974,-84 974,-84 974,-96 974,-96 974,-102 968,-108 962,-108"/>
<text text-anchor="middle" x="931.5" y="-87.5" font-family="sans" font-size="10.00">sam_flagstats</text>
</g>
<!-- 2&#45;&gt;17 -->
<g id="edge25" class="edge">
<title>2&#45;&gt;17</title>
<path fill="none" stroke="grey" stroke-width="2" d="M738.64,-150.68C772.2,-140.77 824.45,-125.19 879.09,-108.09"/>
<polygon fill="grey" stroke="grey" stroke-width="2" points="880.46,-111.33 888.96,-105 878.37,-104.65 880.46,-111.33"/>
</g>
<!-- 3 -->
<g id="node4" class="node">
<title>3</title>
<path fill="none" stroke="#56d873" stroke-width="2" d="M722.5,-324C722.5,-324 684.5,-324 684.5,-324 678.5,-324 672.5,-318 672.5,-312 672.5,-312 672.5,-300 672.5,-300 672.5,-294 678.5,-288 684.5,-288 684.5,-288 722.5,-288 722.5,-288 728.5,-288 734.5,-294 734.5,-300 734.5,-300 734.5,-312 734.5,-312 734.5,-318 728.5,-324 722.5,-324"/>
<text text-anchor="middle" x="703.5" y="-303.5" font-family="sans" font-size="10.00">sort_bam</text>
</g>
<!-- 3&#45;&gt;2 -->
<g id="edge10" class="edge">
<title>3&#45;&gt;2</title>
<path fill="none" stroke="grey" stroke-width="2" d="M699.04,-287.95C696.56,-277.63 693.75,-264.15 692.5,-252 690.87,-236.08 690.87,-231.92 692.5,-216 693.38,-207.46 695.03,-198.26 696.79,-189.96"/>
<polygon fill="grey" stroke="grey" stroke-width="2" points="700.24,-190.57 699.04,-180.05 693.42,-189.03 700.24,-190.57"/>
</g>
<!-- 6 -->
<g id="node7" class="node">
<title>6</title>
<path fill="none" stroke="#d85656" stroke-width="2" d="M753.5,-252C753.5,-252 713.5,-252 713.5,-252 707.5,-252 701.5,-246 701.5,-240 701.5,-240 701.5,-228 701.5,-228 701.5,-222 707.5,-216 713.5,-216 713.5,-216 753.5,-216 753.5,-216 759.5,-216 765.5,-222 765.5,-228 765.5,-228 765.5,-240 765.5,-240 765.5,-246 759.5,-252 753.5,-252"/>
<text text-anchor="middle" x="733.5" y="-231.5" font-family="sans" font-size="10.00">bqsr_proc</text>
</g>
<!-- 3&#45;&gt;6 -->
<g id="edge14" class="edge">
<title>3&#45;&gt;6</title>
<path fill="none" stroke="grey" stroke-width="2" d="M710.92,-287.7C714.29,-279.81 718.37,-270.3 722.12,-261.55"/>
<polygon fill="grey" stroke="grey" stroke-width="2" points="725.45,-262.67 726.17,-252.1 719.01,-259.92 725.45,-262.67"/>
</g>
<!-- 4 -->
<g id="node5" class="node">
<title>4</title>
<path fill="none" stroke="#70d856" stroke-width="2" d="M724,-396C724,-396 683,-396 683,-396 677,-396 671,-390 671,-384 671,-384 671,-372 671,-372 671,-366 677,-360 683,-360 683,-360 724,-360 724,-360 730,-360 736,-366 736,-372 736,-372 736,-384 736,-384 736,-390 730,-396 724,-396"/>
<text text-anchor="middle" x="703.5" y="-375.5" font-family="sans" font-size="10.00">mark_dup</text>
</g>
<!-- 4&#45;&gt;3 -->
<g id="edge12" class="edge">
<title>4&#45;&gt;3</title>
<path fill="none" stroke="grey" stroke-width="2" d="M703.5,-359.7C703.5,-351.98 703.5,-342.71 703.5,-334.11"/>
<polygon fill="grey" stroke="grey" stroke-width="2" points="707,-334.1 703.5,-324.1 700,-334.1 707,-334.1"/>
</g>
<!-- 5 -->
<g id="node6" class="node">
<title>5</title>
<path fill="none" stroke="#afd856" stroke-width="2" d="M739,-468C739,-468 668,-468 668,-468 662,-468 656,-462 656,-456 656,-456 656,-444 656,-444 656,-438 662,-432 668,-432 668,-432 739,-432 739,-432 745,-432 751,-438 751,-444 751,-444 751,-456 751,-456 751,-462 745,-468 739,-468"/>
<text text-anchor="middle" x="703.5" y="-453" font-family="sans" font-size="10.00">bwa_mem</text>
<text text-anchor="middle" x="703.5" y="-442" font-family="sans" font-size="10.00">sample: 582154</text>
</g>
<!-- 5&#45;&gt;4 -->
<g id="edge13" class="edge">
<title>5&#45;&gt;4</title>
<path fill="none" stroke="grey" stroke-width="2" d="M703.5,-431.7C703.5,-423.98 703.5,-414.71 703.5,-406.11"/>
<polygon fill="grey" stroke="grey" stroke-width="2" points="707,-406.1 703.5,-396.1 700,-406.1 707,-406.1"/>
</g>
<!-- 6&#45;&gt;2 -->
<g id="edge11" class="edge">
<title>6&#45;&gt;2</title>
<path fill="none" stroke="grey" stroke-width="2" d="M726.08,-215.7C722.71,-207.81 718.63,-198.3 714.88,-189.55"/>
<polygon fill="grey" stroke="grey" stroke-width="2" points="717.99,-187.92 710.83,-180.1 711.55,-190.67 717.99,-187.92"/>
</g>
<!-- 7&#45;&gt;0 -->
<g id="edge2" class="edge">
<title>7&#45;&gt;0</title>
<path fill="none" stroke="grey" stroke-width="2" d="M692.33,-71.97C797.56,-56.49 946.49,-34.59 1015.16,-24.49"/>
<polygon fill="grey" stroke="grey" stroke-width="2" points="1015.7,-27.95 1025.09,-23.03 1014.69,-21.02 1015.7,-27.95"/>
</g>
<!-- 8 -->
<g id="node9" class="node">
<title>8</title>
<path fill="none" stroke="#d8cb56" stroke-width="2" d="M1345,-108C1345,-108 1004,-108 1004,-108 998,-108 992,-102 992,-96 992,-96 992,-84 992,-84 992,-78 998,-72 1004,-72 1004,-72 1345,-72 1345,-72 1351,-72 1357,-78 1357,-84 1357,-84 1357,-96 1357,-96 1357,-102 1351,-108 1345,-108"/>
<text text-anchor="middle" x="1174.5" y="-93" font-family="sans" font-size="10.00">gatk_hap_caller</text>
<text text-anchor="middle" x="1174.5" y="-82" font-family="sans" font-size="10.00">interval_name: wgs_calling_regions_chrX_PAR.GRCh38.p13.interval_list</text>
</g>
<!-- 8&#45;&gt;0 -->
<g id="edge3" class="edge">
<title>8&#45;&gt;0</title>
<path fill="none" stroke="grey" stroke-width="2" d="M1144.66,-71.88C1127.72,-62.16 1106.39,-49.92 1088.53,-39.67"/>
<polygon fill="grey" stroke="grey" stroke-width="2" points="1089.95,-36.46 1079.54,-34.51 1086.47,-42.53 1089.95,-36.46"/>
</g>
<!-- 9 -->
<g id="node10" class="node">
<title>9</title>
<path fill="none" stroke="#5692d8" stroke-width="2" d="M1717.5,-180C1717.5,-180 1671.5,-180 1671.5,-180 1665.5,-180 1659.5,-174 1659.5,-168 1659.5,-168 1659.5,-156 1659.5,-156 1659.5,-150 1665.5,-144 1671.5,-144 1671.5,-144 1717.5,-144 1717.5,-144 1723.5,-144 1729.5,-150 1729.5,-156 1729.5,-156 1729.5,-168 1729.5,-168 1729.5,-174 1723.5,-180 1717.5,-180"/>
<text text-anchor="middle" x="1694.5" y="-159.5" font-family="sans" font-size="10.00">apply_bqsr</text>
</g>
<!-- 9&#45;&gt;8 -->
<g id="edge16" class="edge">
<title>9&#45;&gt;8</title>
<path fill="none" stroke="grey" stroke-width="2" d="M1659.17,-156.24C1588.87,-146.78 1428.16,-125.15 1311.01,-109.38"/>
<polygon fill="grey" stroke="grey" stroke-width="2" points="1311.26,-105.88 1300.88,-108.01 1310.33,-112.82 1311.26,-105.88"/>
</g>
<!-- 14 -->
<g id="node15" class="node">
<title>14</title>
<path fill="none" stroke="#d8cb56" stroke-width="2" d="M1750.5,-108C1750.5,-108 1386.5,-108 1386.5,-108 1380.5,-108 1374.5,-102 1374.5,-96 1374.5,-96 1374.5,-84 1374.5,-84 1374.5,-78 1380.5,-72 1386.5,-72 1386.5,-72 1750.5,-72 1750.5,-72 1756.5,-72 1762.5,-78 1762.5,-84 1762.5,-84 1762.5,-96 1762.5,-96 1762.5,-102 1756.5,-108 1750.5,-108"/>
<text text-anchor="middle" x="1568.5" y="-93" font-family="sans" font-size="10.00">gatk_hap_caller</text>
<text text-anchor="middle" x="1568.5" y="-82" font-family="sans" font-size="10.00">interval_name: wgs_calling_regions_chrX_NONPAR.GRCh38.p13.interval_list</text>
</g>
<!-- 9&#45;&gt;14 -->
<g id="edge22" class="edge">
<title>9&#45;&gt;14</title>
<path fill="none" stroke="grey" stroke-width="2" d="M1663.68,-143.88C1647.05,-134.64 1626.34,-123.13 1608.48,-113.21"/>
<polygon fill="grey" stroke="grey" stroke-width="2" points="1609.88,-109.99 1599.44,-108.19 1606.48,-116.11 1609.88,-109.99"/>
</g>
<!-- 16 -->
<g id="node17" class="node">
<title>16</title>
<path fill="none" stroke="#56c9d8" stroke-width="2" d="M1851,-108C1851,-108 1792,-108 1792,-108 1786,-108 1780,-102 1780,-96 1780,-96 1780,-84 1780,-84 1780,-78 1786,-72 1792,-72 1792,-72 1851,-72 1851,-72 1857,-72 1863,-78 1863,-84 1863,-84 1863,-96 1863,-96 1863,-102 1857,-108 1851,-108"/>
<text text-anchor="middle" x="1821.5" y="-87.5" font-family="sans" font-size="10.00">sam_validate</text>
</g>
<!-- 9&#45;&gt;16 -->
<g id="edge24" class="edge">
<title>9&#45;&gt;16</title>
<path fill="none" stroke="grey" stroke-width="2" d="M1725.57,-143.88C1742.33,-134.64 1763.21,-123.13 1781.2,-113.21"/>
<polygon fill="grey" stroke="grey" stroke-width="2" points="1783.24,-116.08 1790.31,-108.19 1779.87,-109.95 1783.24,-116.08"/>
</g>
<!-- 18 -->
<g id="node19" class="node">
<title>18</title>
<path fill="none" stroke="#d88d56" stroke-width="2" d="M1954,-108C1954,-108 1893,-108 1893,-108 1887,-108 1881,-102 1881,-96 1881,-96 1881,-84 1881,-84 1881,-78 1887,-72 1893,-72 1893,-72 1954,-72 1954,-72 1960,-72 1966,-78 1966,-84 1966,-84 1966,-96 1966,-96 1966,-102 1960,-108 1954,-108"/>
<text text-anchor="middle" x="1923.5" y="-87.5" font-family="sans" font-size="10.00">sam_flagstats</text>
</g>
<!-- 9&#45;&gt;18 -->
<g id="edge26" class="edge">
<title>9&#45;&gt;18</title>
<path fill="none" stroke="grey" stroke-width="2" d="M1729.73,-150.88C1763.67,-141.04 1816.71,-125.46 1871.14,-108.39"/>
<polygon fill="grey" stroke="grey" stroke-width="2" points="1872.47,-111.64 1880.96,-105.3 1870.37,-104.96 1872.47,-111.64"/>
</g>
<!-- 10 -->
<g id="node11" class="node">
<title>10</title>
<path fill="none" stroke="#56d873" stroke-width="2" d="M1713.5,-324C1713.5,-324 1675.5,-324 1675.5,-324 1669.5,-324 1663.5,-318 1663.5,-312 1663.5,-312 1663.5,-300 1663.5,-300 1663.5,-294 1669.5,-288 1675.5,-288 1675.5,-288 1713.5,-288 1713.5,-288 1719.5,-288 1725.5,-294 1725.5,-300 1725.5,-300 1725.5,-312 1725.5,-312 1725.5,-318 1719.5,-324 1713.5,-324"/>
<text text-anchor="middle" x="1694.5" y="-303.5" font-family="sans" font-size="10.00">sort_bam</text>
</g>
<!-- 10&#45;&gt;9 -->
<g id="edge17" class="edge">
<title>10&#45;&gt;9</title>
<path fill="none" stroke="grey" stroke-width="2" d="M1690.04,-287.95C1687.56,-277.63 1684.75,-264.15 1683.5,-252 1681.87,-236.08 1681.87,-231.92 1683.5,-216 1684.38,-207.46 1686.03,-198.26 1687.79,-189.96"/>
<polygon fill="grey" stroke="grey" stroke-width="2" points="1691.24,-190.57 1690.04,-180.05 1684.42,-189.03 1691.24,-190.57"/>
</g>
<!-- 13 -->
<g id="node14" class="node">
<title>13</title>
<path fill="none" stroke="#d85656" stroke-width="2" d="M1744.5,-252C1744.5,-252 1704.5,-252 1704.5,-252 1698.5,-252 1692.5,-246 1692.5,-240 1692.5,-240 1692.5,-228 1692.5,-228 1692.5,-222 1698.5,-216 1704.5,-216 1704.5,-216 1744.5,-216 1744.5,-216 1750.5,-216 1756.5,-222 1756.5,-228 1756.5,-228 1756.5,-240 1756.5,-240 1756.5,-246 1750.5,-252 1744.5,-252"/>
<text text-anchor="middle" x="1724.5" y="-231.5" font-family="sans" font-size="10.00">bqsr_proc</text>
</g>
<!-- 10&#45;&gt;13 -->
<g id="edge21" class="edge">
<title>10&#45;&gt;13</title>
<path fill="none" stroke="grey" stroke-width="2" d="M1701.92,-287.7C1705.29,-279.81 1709.37,-270.3 1713.12,-261.55"/>
<polygon fill="grey" stroke="grey" stroke-width="2" points="1716.45,-262.67 1717.17,-252.1 1710.01,-259.92 1716.45,-262.67"/>
</g>
<!-- 11 -->
<g id="node12" class="node">
<title>11</title>
<path fill="none" stroke="#70d856" stroke-width="2" d="M1715,-396C1715,-396 1674,-396 1674,-396 1668,-396 1662,-390 1662,-384 1662,-384 1662,-372 1662,-372 1662,-366 1668,-360 1674,-360 1674,-360 1715,-360 1715,-360 1721,-360 1727,-366 1727,-372 1727,-372 1727,-384 1727,-384 1727,-390 1721,-396 1715,-396"/>
<text text-anchor="middle" x="1694.5" y="-375.5" font-family="sans" font-size="10.00">mark_dup</text>
</g>
<!-- 11&#45;&gt;10 -->
<g id="edge19" class="edge">
<title>11&#45;&gt;10</title>
<path fill="none" stroke="grey" stroke-width="2" d="M1694.5,-359.7C1694.5,-351.98 1694.5,-342.71 1694.5,-334.11"/>
<polygon fill="grey" stroke="grey" stroke-width="2" points="1698,-334.1 1694.5,-324.1 1691,-334.1 1698,-334.1"/>
</g>
<!-- 12 -->
<g id="node13" class="node">
<title>12</title>
<path fill="none" stroke="#afd856" stroke-width="2" d="M1730,-468C1730,-468 1659,-468 1659,-468 1653,-468 1647,-462 1647,-456 1647,-456 1647,-444 1647,-444 1647,-438 1653,-432 1659,-432 1659,-432 1730,-432 1730,-432 1736,-432 1742,-438 1742,-444 1742,-444 1742,-456 1742,-456 1742,-462 1736,-468 1730,-468"/>
<text text-anchor="middle" x="1694.5" y="-453" font-family="sans" font-size="10.00">bwa_mem</text>
<text text-anchor="middle" x="1694.5" y="-442" font-family="sans" font-size="10.00">sample: 582958</text>
</g>
<!-- 12&#45;&gt;11 -->
<g id="edge20" class="edge">
<title>12&#45;&gt;11</title>
<path fill="none" stroke="grey" stroke-width="2" d="M1694.5,-431.7C1694.5,-423.98 1694.5,-414.71 1694.5,-406.11"/>
<polygon fill="grey" stroke="grey" stroke-width="2" points="1698,-406.1 1694.5,-396.1 1691,-406.1 1698,-406.1"/>
</g>
<!-- 13&#45;&gt;9 -->
<g id="edge18" class="edge">
<title>13&#45;&gt;9</title>
<path fill="none" stroke="grey" stroke-width="2" d="M1717.08,-215.7C1713.71,-207.81 1709.63,-198.3 1705.88,-189.55"/>
<polygon fill="grey" stroke="grey" stroke-width="2" points="1708.99,-187.92 1701.83,-180.1 1702.55,-190.67 1708.99,-187.92"/>
</g>
<!-- 14&#45;&gt;0 -->
<g id="edge4" class="edge">
<title>14&#45;&gt;0</title>
<path fill="none" stroke="grey" stroke-width="2" d="M1442.93,-71.97C1327.21,-56.27 1162.72,-33.95 1089.79,-24.06"/>
<polygon fill="grey" stroke="grey" stroke-width="2" points="1090.09,-20.57 1079.71,-22.69 1089.15,-27.5 1090.09,-20.57"/>
</g>
<!-- 15&#45;&gt;0 -->
<g id="edge5" class="edge">
<title>15&#45;&gt;0</title>
<path fill="none" stroke="grey" stroke-width="2" d="M871.21,-74.71C874.01,-73.79 876.8,-72.87 879.5,-72 926.29,-56.88 980.55,-40.43 1015.64,-29.94"/>
<polygon fill="grey" stroke="grey" stroke-width="2" points="1016.87,-33.22 1025.45,-27.01 1014.87,-26.52 1016.87,-33.22"/>
</g>
<!-- 16&#45;&gt;0 -->
<g id="edge6" class="edge">
<title>16&#45;&gt;0</title>
<path fill="none" stroke="grey" stroke-width="2" d="M1779.98,-74C1777.13,-73.25 1774.29,-72.57 1771.5,-72 1514.77,-19.78 1197.2,-17.52 1089.9,-18.44"/>
<polygon fill="grey" stroke="grey" stroke-width="2" points="1089.57,-14.94 1079.6,-18.54 1089.64,-21.94 1089.57,-14.94"/>
</g>
<!-- 17&#45;&gt;0 -->
<g id="edge7" class="edge">
<title>17&#45;&gt;0</title>
<path fill="none" stroke="grey" stroke-width="2" d="M961.1,-71.88C977.78,-62.23 998.75,-50.1 1016.39,-39.89"/>
<polygon fill="grey" stroke="grey" stroke-width="2" points="1018.37,-42.79 1025.27,-34.75 1014.87,-36.73 1018.37,-42.79"/>
</g>
<!-- 18&#45;&gt;0 -->
<g id="edge8" class="edge">
<title>18&#45;&gt;0</title>
<path fill="none" stroke="grey" stroke-width="2" d="M1880.86,-73.9C1878.05,-73.18 1875.25,-72.54 1872.5,-72 1719.33,-42.04 1228.98,-24.58 1089.71,-20.13"/>
<polygon fill="grey" stroke="grey" stroke-width="2" points="1089.66,-16.63 1079.55,-19.81 1089.44,-23.63 1089.66,-16.63"/>
</g>
</g>
</svg>
